<?xml version="1.0" encoding="iso-8859-1"?>
<!-- Generator: Adobe Illustrator 19.0.0, SVG Export Plug-In . SVG Version: 6.00 Build 0)  -->
<svg version="1.1" id="Capa_1" xmlns="http://www.w3.org/2000/svg" xmlns:xlink="http://www.w3.org/1999/xlink" x="0px" y="0px"
	 viewBox="0 0 511.999 511.999" style="enable-background:new 0 0 511.999 511.999;" xml:space="preserve">
<linearGradient id="SVGID_1_" gradientUnits="userSpaceOnUse" x1="31.653" y1="257.2273" x2="481.5376" y2="257.2273" gradientTransform="matrix(0.9981 0 0 -0.9981 -0.0955 512.7255)">
	<stop  offset="0" style="stop-color:#00F2FE"/>
	<stop  offset="0.021" style="stop-color:#03EFFE"/>
	<stop  offset="0.293" style="stop-color:#24D2FE"/>
	<stop  offset="0.554" style="stop-color:#3CBDFE"/>
	<stop  offset="0.796" style="stop-color:#4AB0FE"/>
	<stop  offset="1" style="stop-color:#4FACFE"/>
</linearGradient>
<path style="fill:url(#SVGID_1_);" d="M480.503,132.046c0,30.334-10.968,57.298-31.715,77.978
	c-10.551,10.517-28.914,21.66-47.131,27.223v113.067c0,11.023-8.938,19.961-19.961,19.961c-11.024,0-19.961-8.937-19.961-19.961
	V220.848c0-10.655,8.369-19.432,19.012-19.939c12.003-0.571,31.619-10.95,39.858-19.161c16.51-16.456,19.976-36.112,19.976-49.704
	c0-24.581-10.7-50.839-28.943-71.695v57.422c0,6.892-3.555,13.295-9.404,16.941l-49.676,30.96
	c-6.493,4.046-14.728,4.026-21.201-0.054l-49.131-30.963c-5.8-3.655-9.318-10.031-9.318-16.887V59.593
	c-15.395,17.273-25.824,38.436-28.944,59.056c-3.72,24.568,3.141,46.977,19.315,63.101c7.994,7.967,27.596,18.278,39.947,19.132
	c10.466,0.723,18.587,9.423,18.587,19.913v230.324c0,5.4,2.044,10.442,5.757,14.194c3.681,3.722,8.628,5.769,13.93,5.769h0.004
	c5.38,0,10.431-2.084,14.228-5.869c3.871-3.859,6.004-8.862,6.003-14.087c-0.002-11.023,8.933-19.962,19.957-19.965h0.004
	c11.022,0,19.959,8.934,19.961,19.956c0.003,15.916-6.298,30.964-17.743,42.371c-11.332,11.295-26.392,17.515-42.404,17.515h-0.011
	c-16.044,0.001-31.071-6.255-42.309-17.614c-11.156-11.278-17.299-26.291-17.298-42.272V237.025
	c-18.243-5.665-36.489-16.728-46.795-26.999c-25.406-25.324-36.275-59.897-30.605-97.351c4.709-31.109,21.249-62.745,45.379-86.797
	c9.187-9.157,20.685-17.171,34.173-23.82c6.187-3.05,13.511-2.689,19.368,0.953c5.858,3.643,9.42,10.052,9.42,16.95v86.794
	l29.229,18.42l29.656-18.482V19.97c0-6.904,3.567-13.317,9.432-16.958c5.865-3.642,13.194-3.994,19.382-0.933
	c12.662,6.266,23.927,14.272,33.484,23.798C463.124,54.893,480.503,94.581,480.503,132.046z M116.331,162.11v98.026
	c8.325,2.934,15.955,7.72,22.381,14.146c11.311,11.311,17.541,26.349,17.541,42.345v135.487
	c0.002,15.996-6.227,31.036-17.538,42.347c-11.31,11.309-26.348,17.538-42.344,17.538c-0.005,0-0.012-0.001-0.017,0
	c-15.986,0.001-31.018-6.227-42.329-17.536c-11.314-11.315-17.543-26.354-17.539-42.35V316.627
	c0-26.022,16.686-48.223,39.922-56.462v-96.028l-39.17-39.765c-4.865-4.938-6.82-12.048-5.162-18.78l21.957-89.16
	c2.197-8.92,10.196-15.188,19.382-15.188h43.914c9.186,0,17.185,6.269,19.382,15.188l21.957,89.16
	c1.658,6.732-0.296,13.842-5.162,18.78L116.331,162.11z M73.507,104.302l21.864,22.196l21.864-22.196l-15.55-63.139h-12.63
	L73.507,104.302z M116.331,316.627c0-5.332-2.077-10.344-5.847-14.115c-3.771-3.77-8.784-5.846-14.115-5.846
	c-11.007,0.001-19.96,8.955-19.96,19.961v135.491c-0.001,5.334,2.075,10.344,5.845,14.114c3.769,3.769,8.779,5.845,14.106,5.845
	h0.006c5.339,0,10.351-2.076,14.119-5.845c3.77-3.77,5.846-8.783,5.845-14.116L116.331,316.627L116.331,316.627z"/>
<g>
</g>
<g>
</g>
<g>
</g>
<g>
</g>
<g>
</g>
<g>
</g>
<g>
</g>
<g>
</g>
<g>
</g>
<g>
</g>
<g>
</g>
<g>
</g>
<g>
</g>
<g>
</g>
<g>
</g>
</svg>
